<svg height="160" preserveAspectRatio="xMidYMid" viewBox="0 0 217 160" width="217" xmlns="http://www.w3.org/2000/svg"><g fill-rule="evenodd"><path d="m170.358 56.423c16.171 6.689 39.357-11.597 39.357-11.597 16.139-16.139 0-20.523 0-20.523-15.123 5.235-26.877 5.409-35.036 4.199-3.923-16.344-18.595-28.506-36.142-28.506-20.55 0-37.209 16.659-37.209 37.209 0 14.946 8.832 27.799 21.545 33.716-2.619 6.353-8.867 10.83-16.165 10.83-1.219 0-106.693-27.063-106.693-27.063s.896 81.592 53.346 95.041c0 0 43.485 20.622 117.004 0 0 0 42.14-40.347 0-69.039 0 0-7.81-9-8.395-14.597 3.328-2.704 6.155-5.987 8.388-9.67z" fill="#fbb713"/><path d="m170.983 81.144c16.828 26.381-13.63 55.572-13.63 55.572-73.52 20.622-117.005 0-117.005 0-6.98-1.79-13.02-4.813-18.294-8.663 7.555 10.068 17.679 18.182 31.307 21.676 0 0 43.485 20.622 117.004 0 0 0 41.668-39.923.618-68.585z" opacity=".25"/><path d="m148.848 29.135c0 3.219-2.61 5.829-5.829 5.829-3.217 0-5.826-2.61-5.826-5.829 0-3.218 2.609-5.828 5.826-5.828 3.219 0 5.829 2.61 5.829 5.828z" fill="#142a3b"/><path d="m97.867 128.239c-.345 0-.692-.012-1.039-.037-4.207-.301-8.093-2.398-10.943-5.904-1.594-1.961-3.694-3.118-5.912-3.256-2.152-.131-4.249.692-5.955 2.327 0 0-2.229 2.132-2.229 2.132-3.232 3.093-7.347 4.62-11.575 4.307-4.338-.323-8.304-2.536-11.165-6.232 0 0-7.197-9.296-7.197-9.296-1.223-1.577-.934-3.848.644-5.07 1.577-1.222 3.848-.935 5.071.645 0 0 7.198 9.295 7.198 9.295 1.591 2.056 3.718 3.28 5.986 3.449 2.178.163 4.309-.664 6.039-2.322 0 0 2.23-2.132 2.23-2.132 3.184-3.046 7.215-4.577 11.402-4.319 4.258.267 8.19 2.366 11.072 5.912 1.578 1.941 3.656 3.095 5.851 3.253 2.092.151 4.188-.632 5.889-2.204 0 0 3.691-3.402 3.691-3.402 3.09-2.852 7.021-4.311 10.984-4.119 4.057.199 7.875 2.089 10.752 5.32 0 0 1.045 1.173 1.045 1.173 1.654 1.856 3.779 2.892 5.985 2.915 2.051.028 4.316-.955 5.99-2.757 0 0 9.581-10.309 9.581-10.309 1.36-1.464 3.65-1.545 5.107-.188 1.463 1.358 1.547 3.646.187 5.108 0 0-9.58 10.31-9.58 10.31-3.074 3.31-7.144 5.129-11.361 5.065-4.267-.044-8.285-1.94-11.308-5.337 0 0-1.044-1.172-1.044-1.172-1.577-1.771-3.605-2.804-5.708-2.907-2.106-.109-4.051.664-5.729 2.212 0 0-3.691 3.403-3.691 3.403-2.914 2.689-6.527 4.137-10.268 4.137z" fill="#ff3a2f"/></g></svg>