<svg height="64" viewBox="0 0 64 64" width="64" xmlns="http://www.w3.org/2000/svg"><g fill="none" fill-rule="evenodd"><path d="m20 36.5c0-6.9035594 5.5934938-12.5 12.49623-12.5h28.50377l-6.6562418 16.6406045c-1.8467067 4.6167667-7.3646861 8.3593955-12.351884 8.3593955h-14.9962159c-3.8635954 0-6.9956583-3.1409534-6.9956583-6.9971369z" fill="#fcc24c"/><path d="m37 32.5c0-3.5898509 2.91996-6.5 6.5007161-6.5h14.4992839l-2.7409123 6.9566965c-1.3150115 3.3376244-5.2933178 6.0433035-8.8850625 6.0433035h-2.8700016c-3.592073 0-6.5040236-2.9174538-6.5040236-6.5z" fill="#ed9111"/><circle cx="30" cy="17" fill="#fcc24c" r="10"/><g fill="#5b68c0"><path d="m22.5 57c-8.0081289 0-14.5-6.4918711-14.5-14.5s6.4918711-14.5 14.5-14.5 14.5 6.4918711 14.5 14.5-6.4918711 14.5-14.5 14.5zm0-2c6.9035594 0 12.5-5.5964406 12.5-12.5s-5.5964406-12.5-12.5-12.5-12.5 5.5964406-12.5 12.5 5.5964406 12.5 12.5 12.5z" fill-rule="nonzero"/><circle cx="32" cy="16" r="2"/><circle cx="22.5" cy="42.5" r="2.5"/><circle cx="23" cy="15" r="2"/><path d="m21.5 29v4h2v-4zm14.5 12.5h-4v2h4zm-12.5 14.5v-4h-2v4zm-14.5-12.5h4v-2h-4z" fill-rule="nonzero"/></g><path d="m24.3707207 18-7.3707207 4.4544045s1.9438301 3.6570041 9.5741341 1.8285021c7.630304-1.8285021-2.2034134-6.2829066-2.2034134-6.2829066z" fill="#ed9111"/></g></svg>